<mxfile host="app.diagrams.net" modified="2023-03-22T08:11:11.937Z" agent="5.0 (Macintosh; Intel Mac OS X 10_15_7) AppleWebKit/537.36 (KHTML, like Gecko) Chrome/110.0.0.0 Safari/537.36" etag="av8HD3Do05d2vVSLmUR4" version="21.0.8" type="github">
  <diagram name="第 1 页" id="1ruNfDscO8KdI_b67awz">
    <mxGraphModel dx="1353" dy="1123" grid="1" gridSize="10" guides="1" tooltips="1" connect="1" arrows="1" fold="1" page="1" pageScale="1" pageWidth="827" pageHeight="1169" math="0" shadow="0">
      <root>
        <mxCell id="0" />
        <mxCell id="1" parent="0" />
        <mxCell id="HsnvYCSa-12Xa1VKrcTR-4" style="edgeStyle=orthogonalEdgeStyle;rounded=0;orthogonalLoop=1;jettySize=auto;html=1;" edge="1" parent="1" source="HsnvYCSa-12Xa1VKrcTR-1" target="HsnvYCSa-12Xa1VKrcTR-2">
          <mxGeometry relative="1" as="geometry" />
        </mxCell>
        <mxCell id="HsnvYCSa-12Xa1VKrcTR-1" value="千目&lt;br&gt;展示" style="rounded=0;whiteSpace=wrap;html=1;fillColor=#dae8fc;strokeColor=#6c8ebf;" vertex="1" parent="1">
          <mxGeometry x="160" y="330" width="40" height="160" as="geometry" />
        </mxCell>
        <mxCell id="HsnvYCSa-12Xa1VKrcTR-5" style="edgeStyle=orthogonalEdgeStyle;rounded=0;orthogonalLoop=1;jettySize=auto;html=1;entryX=0;entryY=0.5;entryDx=0;entryDy=0;" edge="1" parent="1" source="HsnvYCSa-12Xa1VKrcTR-2" target="HsnvYCSa-12Xa1VKrcTR-3">
          <mxGeometry relative="1" as="geometry" />
        </mxCell>
        <mxCell id="HsnvYCSa-12Xa1VKrcTR-13" style="edgeStyle=orthogonalEdgeStyle;rounded=0;orthogonalLoop=1;jettySize=auto;html=1;exitX=0.5;exitY=1;exitDx=0;exitDy=0;entryX=0.5;entryY=0;entryDx=0;entryDy=0;" edge="1" parent="1" source="HsnvYCSa-12Xa1VKrcTR-2" target="HsnvYCSa-12Xa1VKrcTR-10">
          <mxGeometry relative="1" as="geometry" />
        </mxCell>
        <mxCell id="HsnvYCSa-12Xa1VKrcTR-14" style="edgeStyle=orthogonalEdgeStyle;rounded=0;orthogonalLoop=1;jettySize=auto;html=1;entryX=0.5;entryY=0;entryDx=0;entryDy=0;" edge="1" parent="1" source="HsnvYCSa-12Xa1VKrcTR-2" target="HsnvYCSa-12Xa1VKrcTR-11">
          <mxGeometry relative="1" as="geometry" />
        </mxCell>
        <mxCell id="HsnvYCSa-12Xa1VKrcTR-23" value="画像升级实验" style="edgeLabel;html=1;align=center;verticalAlign=middle;resizable=0;points=[];" vertex="1" connectable="0" parent="HsnvYCSa-12Xa1VKrcTR-14">
          <mxGeometry x="-0.7" y="2" relative="1" as="geometry">
            <mxPoint as="offset" />
          </mxGeometry>
        </mxCell>
        <mxCell id="HsnvYCSa-12Xa1VKrcTR-2" value="画像" style="rounded=0;whiteSpace=wrap;html=1;fillColor=#d5e8d4;strokeColor=#82b366;" vertex="1" parent="1">
          <mxGeometry x="270" y="330" width="40" height="160" as="geometry" />
        </mxCell>
        <mxCell id="HsnvYCSa-12Xa1VKrcTR-19" style="edgeStyle=orthogonalEdgeStyle;rounded=0;orthogonalLoop=1;jettySize=auto;html=1;entryX=0;entryY=0.5;entryDx=0;entryDy=0;" edge="1" parent="1" source="HsnvYCSa-12Xa1VKrcTR-3" target="HsnvYCSa-12Xa1VKrcTR-15">
          <mxGeometry relative="1" as="geometry" />
        </mxCell>
        <mxCell id="HsnvYCSa-12Xa1VKrcTR-20" style="edgeStyle=orthogonalEdgeStyle;rounded=0;orthogonalLoop=1;jettySize=auto;html=1;exitX=1;exitY=0.5;exitDx=0;exitDy=0;entryX=0;entryY=0.5;entryDx=0;entryDy=0;" edge="1" parent="1" source="HsnvYCSa-12Xa1VKrcTR-3" target="HsnvYCSa-12Xa1VKrcTR-17">
          <mxGeometry relative="1" as="geometry" />
        </mxCell>
        <mxCell id="HsnvYCSa-12Xa1VKrcTR-21" style="edgeStyle=orthogonalEdgeStyle;rounded=0;orthogonalLoop=1;jettySize=auto;html=1;exitX=1;exitY=0.5;exitDx=0;exitDy=0;" edge="1" parent="1" source="HsnvYCSa-12Xa1VKrcTR-3" target="HsnvYCSa-12Xa1VKrcTR-16">
          <mxGeometry relative="1" as="geometry" />
        </mxCell>
        <mxCell id="HsnvYCSa-12Xa1VKrcTR-22" style="edgeStyle=orthogonalEdgeStyle;rounded=0;orthogonalLoop=1;jettySize=auto;html=1;entryX=0;entryY=0.5;entryDx=0;entryDy=0;" edge="1" parent="1" source="HsnvYCSa-12Xa1VKrcTR-3" target="HsnvYCSa-12Xa1VKrcTR-18">
          <mxGeometry relative="1" as="geometry" />
        </mxCell>
        <mxCell id="HsnvYCSa-12Xa1VKrcTR-24" value="" style="edgeStyle=orthogonalEdgeStyle;rounded=0;orthogonalLoop=1;jettySize=auto;html=1;" edge="1" parent="1" source="HsnvYCSa-12Xa1VKrcTR-3" target="HsnvYCSa-12Xa1VKrcTR-17">
          <mxGeometry relative="1" as="geometry" />
        </mxCell>
        <mxCell id="HsnvYCSa-12Xa1VKrcTR-25" value="弹窗&lt;br&gt;策略&lt;br&gt;实验" style="edgeLabel;html=1;align=center;verticalAlign=middle;resizable=0;points=[];" vertex="1" connectable="0" parent="HsnvYCSa-12Xa1VKrcTR-24">
          <mxGeometry x="-0.5" y="1" relative="1" as="geometry">
            <mxPoint as="offset" />
          </mxGeometry>
        </mxCell>
        <mxCell id="HsnvYCSa-12Xa1VKrcTR-3" value="千目&lt;br&gt;召回" style="rounded=0;whiteSpace=wrap;html=1;fillColor=#ffe6cc;strokeColor=#d79b00;" vertex="1" parent="1">
          <mxGeometry x="380" y="330" width="40" height="160" as="geometry" />
        </mxCell>
        <mxCell id="HsnvYCSa-12Xa1VKrcTR-10" value="exp1" style="rounded=0;whiteSpace=wrap;html=1;" vertex="1" parent="1">
          <mxGeometry x="240" y="570" width="30" height="75" as="geometry" />
        </mxCell>
        <mxCell id="HsnvYCSa-12Xa1VKrcTR-11" value="base" style="rounded=0;whiteSpace=wrap;html=1;" vertex="1" parent="1">
          <mxGeometry x="310" y="570" width="30" height="75" as="geometry" />
        </mxCell>
        <mxCell id="HsnvYCSa-12Xa1VKrcTR-15" value="base&lt;span style=&quot;white-space: pre;&quot;&gt;	&lt;/span&gt;" style="rounded=0;whiteSpace=wrap;html=1;" vertex="1" parent="1">
          <mxGeometry x="540" y="330" width="120" height="30" as="geometry" />
        </mxCell>
        <mxCell id="HsnvYCSa-12Xa1VKrcTR-16" value="phone_fee" style="rounded=0;whiteSpace=wrap;html=1;" vertex="1" parent="1">
          <mxGeometry x="540" y="420" width="120" height="30" as="geometry" />
        </mxCell>
        <mxCell id="HsnvYCSa-12Xa1VKrcTR-17" value="product" style="rounded=0;whiteSpace=wrap;html=1;" vertex="1" parent="1">
          <mxGeometry x="540" y="375" width="120" height="30" as="geometry" />
        </mxCell>
        <mxCell id="HsnvYCSa-12Xa1VKrcTR-18" value="bmc" style="rounded=0;whiteSpace=wrap;html=1;" vertex="1" parent="1">
          <mxGeometry x="540" y="470" width="120" height="30" as="geometry" />
        </mxCell>
      </root>
    </mxGraphModel>
  </diagram>
</mxfile>
